<svg width="16" height="16" viewBox="0 0 16 16" fill="none" xmlns="http://www.w3.org/2000/svg">
<g clip-path="url(#clip0_1014_1917)">
<path d="M1.16442 11.9174C1.43006 12.1818 1.78961 12.3302 2.16442 12.3302C2.53923 12.3302 2.89878 12.1818 3.16442 11.9174L7.99942 7.08737L12.8319 11.9174C12.9616 12.056 13.1178 12.1671 13.2913 12.2441C13.4647 12.3211 13.6519 12.3624 13.8417 12.3655C14.0314 12.3687 14.2199 12.3336 14.3959 12.2625C14.5718 12.1913 14.7316 12.0855 14.8658 11.9513C15 11.8171 15.1059 11.6572 15.177 11.4813C15.2482 11.3054 15.2832 11.1169 15.2801 10.9271C15.2769 10.7374 15.2356 10.5502 15.1586 10.3767C15.0816 10.2032 14.9705 10.047 14.8319 9.91737L8.99942 4.08237C8.73378 3.81795 8.37423 3.66951 7.99942 3.66951C7.62461 3.66951 7.26506 3.81795 6.99942 4.08237L1.16442 9.91487C0.899243 10.1806 0.750316 10.5407 0.750316 10.9161C0.750316 11.2915 0.899242 11.6516 1.16442 11.9174Z" fill="#3C7CA0"/>
</g>
<defs>
<clipPath id="clip0_1014_1917">
<rect width="16" height="16" fill="white" transform="translate(16 16) rotate(-180)"/>
</clipPath>
</defs>
</svg>
