<svg width="50" height="50" viewBox="0 0 50 50" fill="none" xmlns="http://www.w3.org/2000/svg">
<g clip-path="url(#clip0_1014_320)">
<path d="M32.1154 22.5536C32.0529 20.1327 31.3605 17.7699 30.1065 15.6982C29.473 14.7196 28.6989 13.8397 27.8091 13.0866C25.7446 11.4049 23.3583 10.1625 20.7966 9.43571C20.5272 11.251 20.4972 13.0938 20.7073 14.917C23.3891 15.3277 25.9205 16.42 28.0591 18.0893C28.1993 18.2045 28.327 18.3313 28.4582 18.4464C28.5114 18.4844 28.5599 18.5285 28.6029 18.5777C30.0756 19.9709 31.2611 21.6392 32.0922 23.4884C32.0931 23.1929 32.1002 22.8786 32.1154 22.5536Z" fill="#8AC6E8"/>
<path d="M34.3992 14.7321C35.0349 13.7573 35.7935 12.8684 36.6564 12.0875C35.8056 9.80935 34.5778 7.69052 33.0242 5.81964C31.4786 7.71341 30.263 9.85409 29.4287 12.1518C31.0765 13.6518 32.3086 15.5522 33.0055 17.6687C33.3509 16.6376 33.8188 15.6517 34.3992 14.7321Z" fill="#8AC6E8"/>
<path d="M26.9241 19.4696C23.3035 16.4973 18.1874 16.3205 16.1348 16.3866C16.4749 18.4214 17.6526 23.4063 21.2589 26.3696C24.8651 29.333 29.9955 29.5223 32.0482 29.4527C31.708 27.4179 30.5357 22.433 26.9241 19.4696Z" fill="#8AC6E8"/>
<path d="M44.7552 26.3723C48.3766 23.3964 49.5427 18.417 49.8793 16.3848C48.6578 16.346 47.4353 16.4145 46.2257 16.5893C43.6344 16.895 41.1717 17.8875 39.0927 19.4643C38.9936 19.5437 38.9043 19.6187 38.8186 19.6964C38.7931 19.7256 38.766 19.7534 38.7373 19.7795C36.4618 22.0165 34.9018 24.8788 34.2552 28.0036C34.2552 28.0223 34.248 28.042 34.2436 28.0607C34.1168 28.5964 34.0275 29.0705 33.9668 29.4491C36.0016 29.5241 41.107 29.3625 44.7552 26.3723Z" fill="#8AC6E8"/>
<path d="M1.27232 30.5482C1.01545 30.4261 0.769077 30.2831 0.535714 30.1205C0.344518 29.9915 0.165233 29.8457 0 29.6848C0.00446429 29.5536 0.145536 29.2205 0.825893 28.3929C2.4264 26.3355 3.79901 24.1106 4.91964 21.7571C5.12888 21.3883 5.24675 20.9746 5.26339 20.5509C5.17117 19.6534 4.69558 18.8396 3.95893 18.3187C3.59821 17.9875 3.25804 17.675 3.21786 17.3839C3.22378 17.1732 3.27111 16.9657 3.35714 16.7732C3.50268 16.3902 3.67054 16.0152 3.83929 15.6393C4.20376 14.8848 4.49469 14.0969 4.70804 13.2866L4.79732 12.9062C4.98569 12.0127 5.2287 11.1316 5.525 10.2679C6.22862 8.32459 7.31837 6.54388 8.72857 5.03303C10.4366 3.22767 13.1286 1.94642 16.7321 1.23214C19.4911 0.62742 22.2905 0.224863 25.108 0.0276751C30.1607 -0.216075 34.4964 1.29375 39.1732 4.95446C40.4608 5.94387 41.5666 7.14963 42.4411 8.51785C40.9113 9.13494 39.4606 9.93223 38.1196 10.8929C37.0707 8.29087 35.558 5.90094 33.6554 3.83928C33.4875 3.66799 33.2577 3.57146 33.0179 3.57142C32.773 3.55923 32.5359 3.65951 32.3741 3.84375C30.4879 5.92313 28.9935 8.32675 27.9634 10.9384C25.6483 9.28853 23.0337 8.10576 20.2661 7.45625C19.7931 7.35933 19.3287 7.65598 19.2179 8.12589C18.7786 10.281 18.6643 12.4896 18.8786 14.6786C17.5945 14.5551 16.3017 14.5512 15.017 14.667C14.5378 14.7217 14.1888 15.1471 14.2286 15.6277C14.2536 15.9473 14.9348 23.492 20.1214 27.75C23.8339 30.7982 28.7473 31.2545 31.358 31.2545C31.983 31.2545 32.4732 31.2286 32.7866 31.2054C32.8585 31.2297 32.9332 31.2447 33.0089 31.25C33.0922 31.247 33.1746 31.232 33.2536 31.2054C33.5411 31.225 33.9866 31.2482 34.5848 31.2482C36.0814 31.249 37.5744 31.104 39.0429 30.8152C38.9188 31.0545 38.8018 31.2929 38.6991 31.5295C37.4908 34.2837 37.039 37.3103 37.3902 40.2973C37.5963 42.1924 37.9722 44.0651 38.5134 45.8929C38.8072 46.8526 39.1777 47.7872 39.6214 48.6875C39.8251 49.0918 40.0563 49.4817 40.3134 49.8545L40.3732 49.9437L20.1214 50C19.5303 47.8825 17.8754 45.4551 17.1429 44.6429C16.4103 43.8306 16.0714 42.8571 14.6429 43.2143C13.2143 43.5714 9.67888 44.8676 7.07679 45.4929C6.24452 45.6535 5.43362 45.1293 5.23839 44.3045C5.04765 43.7965 4.97587 43.2516 5.02857 42.7116C5.05179 42.5241 5.09464 42.3384 5.13571 42.1518C5.31765 41.5345 5.34433 40.8819 5.21339 40.2518C4.9539 39.4317 4.35027 38.7651 3.55982 38.4259L3.375 38.3196C3.47141 38.125 3.58654 37.9402 3.71875 37.7679C3.8692 37.5785 3.93638 37.3361 3.90491 37.0963C3.87344 36.8565 3.74601 36.6397 3.55179 36.4955C3.3375 36.3384 2.83214 35.9598 2.4625 35.6616C2.50714 35.5839 2.55268 35.4982 2.59643 35.4205C2.73661 35.175 2.89643 34.8893 3.05268 34.5589C3.33522 33.9331 3.41845 33.2355 3.29107 32.5607C3.07683 31.4716 2.03346 30.9377 1.27279 30.5485L1.27232 30.5482Z" fill="#8AC6E8"/>
<path d="M37.47 18.5214C37.4816 18.508 37.4941 18.4955 37.5066 18.483L37.5173 18.4714L37.5369 18.4518C37.678 18.3205 37.8182 18.2 37.97 18.0795C40.1025 16.4129 42.6316 15.3292 45.3092 14.9348C45.522 13.1059 45.492 11.2568 45.22 9.43571C42.6858 10.155 40.3225 11.3772 38.2708 13.0295C37.3534 13.7958 36.5551 14.6943 35.9021 15.6955C34.6468 17.7699 33.9564 20.1368 33.8994 22.5607C33.9137 22.8857 33.9217 23.2054 33.9226 23.5161C34.7581 21.6301 35.9645 19.9316 37.47 18.5214Z" fill="#8AC6E8"/>
</g>
<defs>
<clipPath id="clip0_1014_320">
<rect width="50" height="50" fill="white"/>
</clipPath>
</defs>
</svg>
