<svg viewBox="0 0 50 50" fill="none" xmlns="http://www.w3.org/2000/svg">
<path d="M35.7943 5.70783C34.4538 4.44539 32.7373 3.83905 31.0075 3.83905C29.0603 3.83905 27.0952 4.60734 25.6295 6.0737L24.9997 6.70348L24.3699 6.07346C22.9041 4.6077 20.9391 3.83905 18.9919 3.83905C17.2617 3.83905 15.546 4.44539 14.205 5.70783C11.2561 8.48449 11.2034 13.1275 14.0472 15.9713L24.9998 26.9238L35.9523 15.9713C38.7961 13.1274 38.7434 8.48437 35.7943 5.70783Z" fill="#F5BCD0"/>
<path d="M21.161 46.1611L21.1526 35.3091C21.1526 30.0681 18.468 26.9955 14.9123 25.8381C13.9199 25.5377 13.0307 24.7487 12.2038 23.9213C10.7013 22.3566 9.09515 20.2166 7.01452 20.2432L7.01259 20.2352C6.33388 20.2441 5.65528 20.4894 5.06686 21.0778C3.68695 22.4577 4.24447 24.566 5.43453 25.7561L9.30027 29.6215C9.66097 29.9822 9.8638 30.4715 9.8638 30.9817C9.8638 31.4919 9.66097 31.9812 9.30027 32.342L4.07434 27.1163C3.1661 26.2082 2.54894 24.9805 2.38073 23.7483C2.17129 22.2133 2.64188 20.7819 3.70606 19.7177C4.50309 18.9207 5.48094 18.4708 6.54753 18.3571L5.76698 15.2044C5.70782 3.5048 0.000480932 4.93413 0.000480932 7.68639L0 28.2257C0 29.5014 0.494158 30.7037 1.39206 31.611C10.9487 41.2561 9.61864 38.1488 9.61864 46.1611H21.161Z" fill="#F5BCD0"/>
<path d="M49.9994 7.68648C49.9994 4.93435 44.2921 3.5049 44.2329 15.2047L43.4524 18.3573C44.5189 18.471 45.4968 18.9208 46.2938 19.718C47.358 20.7821 47.8287 22.2135 47.6192 23.7485C47.4511 24.9807 46.8339 26.2084 45.9255 27.1165L40.6996 32.3422C40.3389 31.9813 40.1361 31.4921 40.1361 30.9819C40.1361 30.4718 40.3389 29.9824 40.6996 29.6217L44.5654 25.7563C45.7554 24.5662 46.3129 22.4578 44.933 21.078C44.3446 20.4896 43.6659 20.2443 42.9873 20.2354L42.9854 20.2434C40.9047 20.2168 39.2985 22.3568 37.7961 23.9215C36.969 24.7489 36.0799 25.5378 35.0876 25.8383C31.5318 26.9955 28.8473 30.0683 28.8473 35.3092L28.8389 46.1612H40.3812C40.3812 38.1491 39.0512 41.2563 48.6078 31.6111C49.5058 30.7037 49.9999 29.5013 49.9999 28.2258L49.9994 7.68648Z" fill="#F5BCD0"/>
</svg>
