<svg width="50" height="50" viewBox="0 0 50 50" fill="none" xmlns="http://www.w3.org/2000/svg">
<path d="M17.1783 32.8904L17.8078 32.1831C17.3479 30.7133 17.3467 29.0952 17.8379 27.6011C14.2202 29.5886 9.64014 28.7966 6.90609 25.5629C4.87541 27.1733 3.57129 29.6619 3.57129 32.4492V45.005C3.57129 45.698 4.13379 46.2605 4.82686 46.2605H15.1711C15.0313 45.868 14.9551 45.4453 14.9551 45.005V38.7271C14.9551 36.5742 15.7445 34.5009 17.1783 32.8904Z" fill="#AAA9DB"/>
<path d="M13.6158 26.1714C17.0829 26.1714 19.8936 23.3607 19.8936 19.8935C19.8936 16.4264 17.0829 13.6157 13.6158 13.6157C10.1486 13.6157 7.33789 16.4264 7.33789 19.8935C7.33789 23.3607 10.1486 26.1714 13.6158 26.1714Z" fill="#AAA9DB"/>
<path d="M43.094 25.5629C40.355 28.8025 35.7717 29.5858 32.1621 27.6002C32.6526 29.0974 32.6527 30.7113 32.1922 32.1831L32.8217 32.8904C34.2556 34.5009 35.0449 36.5742 35.0449 38.7271V45.005C35.0449 45.4453 34.9687 45.868 34.8289 46.2605H45.1732C45.8663 46.2605 46.4288 45.698 46.4288 45.005V32.4492C46.4288 29.6619 45.1246 27.1733 43.094 25.5629Z" fill="#AAA9DB"/>
<path d="M36.3833 26.1714C39.8505 26.1714 42.6612 23.3607 42.6612 19.8935C42.6612 16.4264 39.8505 13.6157 36.3833 13.6157C32.9162 13.6157 30.1055 16.4264 30.1055 19.8935C30.1055 23.3607 32.9162 26.1714 36.3833 26.1714Z" fill="#AAA9DB"/>
<path d="M25.0002 37.4715C22.5862 37.4715 20.4341 36.3306 19.0547 34.5594C18.067 35.6694 17.4668 37.1292 17.4668 38.7271V45.005C17.4668 45.698 18.0293 46.2605 18.7224 46.2605H31.2781C31.9712 46.2605 32.5337 45.698 32.5337 45.005V38.7271C32.5337 37.1292 31.9335 35.6694 30.9458 34.5594C29.5663 36.3306 27.4143 37.4715 25.0002 37.4715Z" fill="#AAA9DB"/>
<path d="M24.9998 34.9604C27.7736 34.9604 30.0221 32.7118 30.0221 29.9381C30.0221 27.1644 27.7736 24.9158 24.9998 24.9158C22.2261 24.9158 19.9775 27.1644 19.9775 29.9381C19.9775 32.7118 22.2261 34.9604 24.9998 34.9604Z" fill="#AAA9DB"/>
<path d="M21.4275 13.6989C22.861 15.0237 24.2821 15.9036 24.3418 15.9405C24.7456 16.1889 25.2546 16.1889 25.6583 15.9405C25.7181 15.9036 27.1391 15.0237 28.5726 13.6989C30.6455 11.7832 31.6965 9.92084 31.6965 8.16363C31.6965 4.17292 27.728 2.29969 25.0001 4.51661C22.266 2.29475 18.3037 4.18346 18.3037 8.16363C18.3037 9.92084 19.3547 11.7832 21.4275 13.6989Z" fill="#AAA9DB"/>
</svg>
