<svg width="50" height="50" viewBox="0 0 50 50" fill="none" xmlns="http://www.w3.org/2000/svg">
<g clip-path="url(#clip0_1014_290)">
<path d="M37.423 4.79834L26.3841 14.2354H24.5965C24.0651 14.4388 23.4892 14.5512 22.8873 14.5512C22.2543 14.5512 21.6486 14.4261 21.0928 14.2007C21.0655 14.1896 21.0379 14.1789 21.0108 14.1673C19.3014 13.4368 18.09 11.7406 18.09 9.75375C18.09 9.4034 18.1287 9.06198 18.2005 8.73282L14.2089 0.954314C13.7664 0.0917356 12.7081 -0.248606 11.8459 0.193966C10.9834 0.636537 10.643 1.69455 11.0856 2.55703L18.1484 16.3208V16.5314L15.8963 34.1036C15.7928 34.7011 16.2552 35.2464 16.857 35.2464H18.22V47.8931C18.22 49.0564 19.163 49.9994 20.3263 49.9994C21.4896 49.9994 22.4326 49.0564 22.4326 47.8931V35.2465H24.9186L30.5523 48.7064C31.0035 49.7844 32.2402 50.2834 33.3086 49.8362C34.3817 49.387 34.8875 48.153 34.4385 47.0799L29.4855 35.2465H30.6021C31.2058 35.2465 31.6666 34.702 31.5629 34.1037L27.6089 17.8433L39.7042 7.46672C40.4411 6.83676 40.5277 5.72881 39.8979 4.99191C39.2681 4.25511 38.1599 4.16838 37.423 4.79834Z" fill="#8AC6E8"/>
<path d="M22.8869 13.3916C24.8961 13.3916 26.5248 11.7629 26.5248 9.75375C26.5248 7.74459 24.8961 6.11585 22.8869 6.11585C20.8778 6.11585 19.249 7.74459 19.249 9.75375C19.249 11.7629 20.8778 13.3916 22.8869 13.3916Z" fill="#8AC6E8"/>
<path d="M29.0961 7.56915C29.7292 7.56915 30.5288 7.24411 30.4149 6.68577V2.48325L33.572 1.37824V4.76518C32.9441 4.71475 32.062 4.97572 32.062 5.54505C32.062 5.98026 32.6573 6.33307 33.3915 6.33307C34.1258 6.33307 34.721 5.98026 34.721 5.54505H34.7412V0.660182C34.7412 0.205837 34.2925 -0.112528 33.8636 0.0375797L29.7145 1.4898C29.4337 1.588 29.2457 1.853 29.2457 2.15046V5.99851C28.6306 5.9575 27.7666 6.21926 27.7666 6.78123C27.7666 7.21634 28.3618 7.56915 29.0961 7.56915Z" fill="#8AC6E8"/>
<path d="M42.4762 16.5409V20.8855C41.8611 20.8445 40.9971 21.1063 40.9971 21.6683C40.9971 22.1035 41.5923 22.4563 42.3266 22.4563C42.9597 22.4563 43.7592 22.1312 43.6453 21.5729V17.3703L44.5621 17.0495C45.1715 16.8362 45.4926 16.1691 45.2793 15.5598L42.4762 16.5409Z" fill="#8AC6E8"/>
<path d="M3.95859 9.20287V13.5474C3.34344 13.5066 2.47949 13.7682 2.47949 14.3302C2.47949 14.7654 3.07472 15.1182 3.80897 15.1182C4.44207 15.1182 5.24157 14.7931 5.12776 14.2348V10.0323L6.04449 9.71146C6.65395 9.49817 6.97506 8.83123 6.76177 8.22177L3.95859 9.20287Z" fill="#8AC6E8"/>
<path d="M42.8133 2.50297C43.1693 2.69703 43.462 2.98979 43.6561 3.34573C43.7313 3.48357 43.9304 3.48357 44.0056 3.34573C44.1996 2.98989 44.4924 2.69703 44.8483 2.50297C44.9862 2.42782 44.9862 2.22865 44.8483 2.1535C44.4924 1.95954 44.1995 1.66668 44.0056 1.31074C43.9304 1.1729 43.7313 1.1729 43.6561 1.31074C43.462 1.66659 43.1693 1.95954 42.8133 2.1535C42.6755 2.22856 42.6755 2.42782 42.8133 2.50297Z" fill="#8AC6E8"/>
<path d="M2.75069 8.01878C2.94465 7.66284 3.23751 7.36998 3.59345 7.17602C3.73129 7.10087 3.73129 6.9017 3.59345 6.82655C3.23751 6.63249 2.94465 6.33973 2.75069 5.98379C2.67554 5.84595 2.47637 5.84595 2.40122 5.98379C2.20716 6.33964 1.9144 6.63249 1.55846 6.82655C1.42062 6.9017 1.42062 7.10087 1.55846 7.17602C1.9144 7.36998 2.20726 7.66284 2.40122 8.01878C2.47637 8.15662 2.67554 8.15662 2.75069 8.01878Z" fill="#8AC6E8"/>
<path d="M47.1658 6.78515C46.8871 6.63328 46.6578 6.4039 46.5059 6.12517C46.447 6.01725 46.291 6.01725 46.2321 6.12517C46.0802 6.4039 45.8509 6.63328 45.5722 6.78515C45.4642 6.84402 45.4642 7.00001 45.5722 7.05888C45.8509 7.21085 46.0802 7.44013 46.2321 7.71886C46.291 7.82678 46.447 7.82678 46.5059 7.71886C46.6578 7.44013 46.8871 7.21085 47.1658 7.05888C47.2738 7.00001 47.2738 6.84402 47.1658 6.78515Z" fill="#8AC6E8"/>
<path d="M8.0007 4.38412C7.72198 4.23225 7.49269 4.00287 7.34072 3.72414C7.28186 3.61622 7.12586 3.61622 7.06709 3.72414C6.91512 4.00287 6.68584 4.23225 6.40711 4.38412C6.29919 4.44298 6.29919 4.59898 6.40711 4.65784C6.68584 4.80982 6.91512 5.0391 7.06709 5.31783C7.12596 5.42575 7.28195 5.42575 7.34072 5.31783C7.49269 5.0391 7.72198 4.80982 8.0007 4.65784C8.10862 4.59898 8.10862 4.44298 8.0007 4.38412Z" fill="#8AC6E8"/>
<path d="M48.4869 2.97419C48.2883 2.86597 48.1249 2.70262 48.0167 2.50405C47.9748 2.42713 47.8637 2.42713 47.8218 2.50405C47.7136 2.70252 47.5502 2.86587 47.3516 2.97419C47.2747 3.01608 47.2747 3.12724 47.3516 3.16913C47.5501 3.27734 47.7136 3.4407 47.8218 3.63927C47.8637 3.71619 47.9748 3.71619 48.0167 3.63927C48.1249 3.4408 48.2883 3.27734 48.4869 3.16913C48.5638 3.12714 48.5638 3.01608 48.4869 2.97419Z" fill="#8AC6E8"/>
<path d="M2.68652 3.05542C2.88509 3.16364 3.04845 3.32699 3.15666 3.52556C3.19855 3.60248 3.30971 3.60248 3.3516 3.52556C3.45982 3.32709 3.62317 3.16374 3.82175 3.05542C3.89866 3.01353 3.89866 2.90237 3.82175 2.86048C3.62317 2.75227 3.45982 2.58891 3.3516 2.39034C3.30971 2.31352 3.19855 2.31352 3.15666 2.39034C3.04845 2.58891 2.88509 2.75227 2.68652 2.86048C2.6097 2.90237 2.6097 3.01353 2.68652 3.05542Z" fill="#8AC6E8"/>
</g>
<defs>
<clipPath id="clip0_1014_290">
<rect width="50" height="50" fill="white"/>
</clipPath>
</defs>
</svg>
