<svg width="50" height="50" viewBox="0 0 50 50" fill="none" xmlns="http://www.w3.org/2000/svg">
<g clip-path="url(#clip0_1014_361)">
<path d="M49.5711 36.2358C48.8656 35.5303 48.1138 34.8923 47.32 34.3211C45.629 36.2741 43.6435 37.9156 41.4048 39.2079C37.9372 41.2104 33.9934 42.2794 29.9912 42.3047C32.1164 43.1617 34.4076 43.6113 36.7682 43.6113C41.6045 43.6113 46.1514 41.7279 49.5712 38.3081C49.8459 38.0334 50.0003 37.6609 50.0003 37.2724C50.0002 36.8839 49.8458 36.5106 49.5711 36.2358Z" fill="#F5BCD0"/>
<path d="M2.68018 34.3211C1.88643 34.8924 1.13457 35.5304 0.429102 36.2358C0.154395 36.5106 0 36.8839 0 37.2724C0 37.6609 0.154395 38.0334 0.429102 38.3081C3.84893 41.7279 8.3958 43.6113 13.2321 43.6113C15.5927 43.6113 17.8839 43.1617 20.0091 42.3047C16.0066 42.2794 12.0631 41.2104 8.59512 39.2077C6.35664 37.9156 4.37109 36.2741 2.68018 34.3211Z" fill="#F5BCD0"/>
<path d="M10.0597 36.6707C12.4949 38.077 15.3261 39.0199 18.3445 39.2932C13.1288 36.4064 10.31 32.3985 8.9831 30.1003C7.52393 27.5732 6.5377 24.835 6.04727 21.9537C4.59014 22.0162 3.13955 22.2338 1.72822 22.6089C1.08369 22.7628 0.604492 23.343 0.604492 24.0346C0.604492 24.1627 0.621289 24.2903 0.654492 24.414C2.15059 29.9943 5.80352 34.2138 10.0597 36.6707Z" fill="#F5BCD0"/>
<path d="M31.6553 39.2932C34.6736 39.0198 37.5049 38.0769 39.9401 36.6707C44.1963 34.2138 47.8492 29.9942 49.3454 24.414C49.3786 24.2903 49.3954 24.1628 49.3954 24.0347C49.3954 23.3431 48.9162 22.7629 48.2717 22.609C46.8604 22.2339 45.4098 22.0162 43.9526 21.9538C43.4622 24.835 42.476 27.5732 41.0168 30.1004C39.6898 32.3985 36.8743 36.4045 31.6553 39.2932Z" fill="#F5BCD0"/>
<path d="M18.2908 35.8348C16.8106 33.4439 14.5119 28.8543 14.5119 22.563C14.5119 19.3749 15.102 16.2738 16.2643 13.3316C14.6634 12.4185 12.9468 11.7083 11.1596 11.2296C10.3779 11.0204 9.57509 11.4839 9.36561 12.2652C7.76679 18.2299 8.89442 24.0878 11.5203 28.6355C13.1145 31.3967 15.404 33.9197 18.2908 35.8348Z" fill="#F5BCD0"/>
<path d="M31.707 35.8356C34.5945 33.9205 36.8845 31.397 38.4789 28.6354C41.1048 24.0877 42.2324 18.2299 40.6336 12.2652C40.4241 11.4839 39.6213 11.0203 38.8396 11.2296C37.0521 11.7083 35.3354 12.4186 33.7343 13.332C34.8964 16.274 35.4865 19.375 35.4865 22.563C35.4866 28.8596 33.1838 33.4505 31.707 35.8356Z" fill="#F5BCD0"/>
<path d="M26.0362 6.81765C25.7615 6.54294 25.3881 6.38855 24.9996 6.38855C24.6111 6.38855 24.2386 6.54294 23.9639 6.81765C20.1271 10.6545 17.4424 16.1931 17.4424 22.5629C17.4424 28.9355 20.1301 34.4744 23.9639 38.3081C24.2386 38.5828 24.612 38.7372 25.0005 38.7372C25.389 38.7372 25.7615 38.5828 26.0362 38.3081C29.869 34.4754 32.5577 28.937 32.5577 22.5629C32.5578 16.1902 29.8711 10.6523 26.0362 6.81765Z" fill="#F5BCD0"/>
</g>
<defs>
<clipPath id="clip0_1014_361">
<rect width="50" height="50" fill="white"/>
</clipPath>
</defs>
</svg>
