<svg width="50" height="50" viewBox="0 0 50 50" fill="none" xmlns="http://www.w3.org/2000/svg">
<g clip-path="url(#clip0_1014_347)">
<path d="M25 7.20208C24.1375 7.20208 23.4375 6.50208 23.4375 5.63958V1.5625C23.4375 0.7 24.1375 0 25 0C25.8625 0 26.5625 0.7 26.5625 1.5625V5.63958C26.5625 6.50208 25.8625 7.20208 25 7.20208Z" fill="#AAA9DB"/>
<path d="M38.6899 12.8729C38.2899 12.8729 37.8899 12.7208 37.5857 12.4146C36.9753 11.8042 36.9753 10.8146 37.5857 10.2042L40.4691 7.32085C41.0795 6.71043 42.0691 6.71043 42.6795 7.32085C43.2899 7.93127 43.2899 8.92085 42.6795 9.53127L39.7962 12.4146C39.4899 12.7188 39.092 12.8729 38.6899 12.8729Z" fill="#AAA9DB"/>
<path d="M48.4373 26.5625H44.3623C43.4998 26.5625 42.7998 25.8625 42.7998 25C42.7998 24.1375 43.4998 23.4375 44.3623 23.4375H48.4373C49.2998 23.4375 49.9998 24.1375 49.9998 25C49.9998 25.8625 49.2998 26.5625 48.4373 26.5625Z" fill="#AAA9DB"/>
<path d="M41.5732 43.1354C41.1732 43.1354 40.7732 42.9834 40.4691 42.6771L37.5857 39.7938C36.9753 39.1834 36.9753 38.1938 37.5857 37.5834C38.1962 36.9729 39.1857 36.9729 39.7962 37.5834L42.6795 40.4667C43.2899 41.0771 43.2899 42.0667 42.6795 42.6771C42.3732 42.9834 41.9732 43.1354 41.5732 43.1354Z" fill="#AAA9DB"/>
<path d="M25 50C24.1375 50 23.4375 49.3 23.4375 48.4375V44.3604C23.4375 43.4979 24.1375 42.7979 25 42.7979C25.8625 42.7979 26.5625 43.4979 26.5625 44.3604V48.4375C26.5625 49.3 25.8625 50 25 50Z" fill="#AAA9DB"/>
<path d="M8.42721 43.1354C8.02721 43.1354 7.62721 42.9834 7.32305 42.6771C6.71263 42.0667 6.71263 41.0771 7.32305 40.4667L10.2064 37.5834C10.8168 36.9729 11.8064 36.9729 12.4168 37.5834C13.0272 38.1938 13.0272 39.1834 12.4168 39.7938L9.53346 42.6771C9.22721 42.9834 8.82721 43.1354 8.42721 43.1354Z" fill="#AAA9DB"/>
<path d="M5.6375 26.5625H1.5625C0.7 26.5625 0 25.8625 0 25C0 24.1375 0.7 23.4375 1.5625 23.4375H5.6375C6.5 23.4375 7.2 24.1375 7.2 25C7.2 25.8625 6.5 26.5625 5.6375 26.5625Z" fill="#AAA9DB"/>
<path d="M11.3105 12.8729C10.9105 12.8729 10.5105 12.7208 10.2064 12.4146L7.32305 9.53127C6.71263 8.92085 6.71263 7.93127 7.32305 7.32085C7.93346 6.71043 8.92305 6.71043 9.53346 7.32085L12.4168 10.2042C13.0272 10.8146 13.0272 11.8042 12.4168 12.4146C12.1085 12.7188 11.7105 12.8729 11.3105 12.8729Z" fill="#AAA9DB"/>
<path d="M23.0033 38.5714C22.8575 38.5714 22.7099 38.546 22.5674 38.4951C22.0058 38.2898 21.6632 37.7232 21.7429 37.1329L23.1255 26.6963H17.7902C17.3118 26.6963 16.8724 26.4265 16.6552 25.999C16.4381 25.5715 16.4805 25.0575 16.7638 24.6724L26.0943 11.949C26.4421 11.4723 27.0731 11.2959 27.6143 11.5283C28.1572 11.7573 28.4727 12.329 28.376 12.9092L26.9272 21.6069H32.21C32.6748 21.6069 33.1023 21.8597 33.3263 22.2685C33.5485 22.6757 33.5315 23.1728 33.2822 23.5646L24.0755 37.9845C23.8363 38.3594 23.4275 38.5714 23.0033 38.5714Z" fill="#AAA9DB"/>
</g>
<defs>
<clipPath id="clip0_1014_347">
<rect width="50" height="50" fill="white"/>
</clipPath>
</defs>
</svg>
