<svg width="21" height="22" viewBox="0 0 21 22" fill="none" xmlns="http://www.w3.org/2000/svg">
<path fill-rule="evenodd" clip-rule="evenodd" d="M9.41871 2.6626C14.6205 2.6626 18.8374 6.8795 18.8374 12.0813C18.8374 17.2831 14.6205 21.5 9.41871 21.5C4.2169 21.5 0 17.2831 0 12.0813C0 6.8795 4.2169 2.6626 9.41871 2.6626Z" fill="#8AC6E8"/>
<path fill-rule="evenodd" clip-rule="evenodd" d="M14.9717 1.33868C14.1514 0.937943 12.5125 0.359711 10.8264 0.530871C9.49645 0.66589 8.1317 1.21527 7.16863 1.74324C6.81943 1.93493 6.48273 2.14858 6.16058 2.3829C5.96633 2.52454 5.71847 2.68867 5.49971 2.81804C5.21163 2.98842 4.79098 3.25817 4.4096 3.58269C4.1351 3.81627 3.8832 4.10783 3.70931 4.32697C3.574 4.4975 3.33393 4.75165 3.09569 4.99106C2.6962 5.39251 2.08657 6.11549 1.83867 6.98986C1.60259 7.82257 1.68281 8.78785 1.783 9.4204C1.82165 9.66449 1.93059 9.91628 1.96409 10.1253C1.99553 10.3215 1.95229 10.4785 1.9661 10.6018C2.07838 11.605 2.45962 13.9132 3.67803 15.5391C4.31612 16.3907 5.18861 17.3597 5.99813 17.8594C6.45951 18.1443 6.95693 18.3662 7.47715 18.5193C7.78576 18.6096 8.20448 18.6228 8.48545 18.6955C8.73342 18.7596 8.91828 18.8843 9.0916 18.9463C9.86732 19.2238 11.1303 19.6519 12.3314 19.8033C12.8473 19.8684 13.986 19.87 14.8814 19.4898C15.5572 19.2029 16.1217 18.7519 16.4404 18.4648C16.5313 18.3828 16.6012 18.2707 16.6999 18.1938C16.8046 18.1122 16.9381 18.0664 17.039 17.9994C17.5331 17.6713 18.5191 16.912 19.3962 15.6018C19.9455 14.7813 20.5536 13.3096 20.7966 12.341C21.577 9.22956 19.856 5.69388 19.856 5.69388C19.856 5.69388 19.3142 4.15869 18.1421 3.06012C17.5375 2.49347 16.6748 2.082 16.1086 1.85178C15.7618 1.71076 15.3268 1.51216 14.9717 1.33868Z" fill="#F6A2BC"/>
<path fill-rule="evenodd" clip-rule="evenodd" d="M18.8375 12.0813C18.8375 14.7439 17.7323 17.1481 15.9561 18.8612C15.6584 19.0824 15.2905 19.3161 14.8814 19.4898C13.986 19.87 12.8473 19.8684 12.3314 19.8034C11.1303 19.652 9.86732 19.2239 9.0916 18.9463C8.91828 18.8843 8.73342 18.7597 8.48545 18.6955C8.20448 18.6228 7.78576 18.6097 7.47715 18.5193C6.95693 18.3663 6.45951 18.1443 5.99813 17.8594C5.18861 17.3598 4.31612 16.3907 3.67803 15.5392C2.45961 13.9132 2.07838 11.605 1.9661 10.6019C1.95229 10.4785 1.99553 10.3215 1.96409 10.1253C1.93059 9.91631 1.82165 9.66452 1.783 9.42042C1.68281 8.78787 1.60259 7.8226 1.83867 6.98989C1.97566 6.50671 2.22314 6.06992 2.48454 5.70792C4.20596 3.836 6.6752 2.6626 9.41877 2.6626C14.6206 2.6626 18.8375 6.8795 18.8375 12.0813Z" fill="#7776A2"/>
</svg>
