<svg width="50" height="50" viewBox="0 0 50 50" fill="none" xmlns="http://www.w3.org/2000/svg">
<path fill-rule="evenodd" clip-rule="evenodd" d="M44.8506 22.4255C44.8506 34.8108 34.8103 44.851 22.4251 44.851C10.0398 44.851 -0.000427246 34.8108 -0.000427246 22.4255C-0.000427246 10.0402 10.0398 0 22.4251 0C34.8103 0 44.8506 10.0402 44.8506 22.4255Z" fill="#AAD5EE"/>
<path fill-rule="evenodd" clip-rule="evenodd" d="M48.0031 35.6467C48.9573 33.6936 50.334 29.7914 49.9265 25.7771C49.605 22.6104 48.297 19.3611 47.0399 17.068C46.5835 16.2366 46.0748 15.4349 45.5169 14.6679C45.1797 14.2054 44.7889 13.6153 44.4808 13.0944C44.0752 12.4085 43.4329 11.4069 42.6603 10.4989C42.1041 9.84533 41.4099 9.24557 40.8882 8.83156C40.4821 8.50939 39.877 7.93778 39.307 7.37054C38.3512 6.41938 36.6298 4.96788 34.5479 4.37766C32.5653 3.81556 30.267 4.00656 28.761 4.24509C28.1798 4.33713 27.5803 4.59651 27.0826 4.67626C26.6155 4.75112 26.2418 4.64816 25.948 4.68105C23.5596 4.94839 18.0639 5.85609 14.1925 8.75708C12.1651 10.2763 9.85774 12.3537 8.66819 14.2811C7.98977 15.3796 7.46133 16.564 7.09693 17.8026C6.88181 18.5374 6.8505 19.5343 6.67744 20.2033C6.5247 20.7937 6.22785 21.2339 6.08021 21.6465C5.41942 23.4935 4.40018 26.5005 4.03969 29.3603C3.88483 30.5888 3.881 33.2998 4.78622 35.4317C5.46939 37.0407 6.54297 38.3849 7.22678 39.1436C7.42181 39.36 7.6889 39.5266 7.87189 39.7614C8.06626 40.0108 8.17518 40.3287 8.33471 40.5689C9.11591 41.7452 10.9239 44.093 14.0432 46.1812C15.9968 47.4891 19.5009 48.9371 21.8071 49.5156C29.2153 51.3737 37.6336 47.2761 37.6336 47.2761C37.6336 47.2761 41.2888 45.986 43.9045 43.1953C45.2537 41.7558 46.2333 39.7017 46.7815 38.3536C47.1172 37.5279 47.5901 36.4922 48.0031 35.6467Z" fill="#F5BCD0"/>
<path fill-rule="evenodd" clip-rule="evenodd" d="M22.4251 44.851C16.0856 44.851 10.3613 42.2197 6.28257 37.9906C5.7559 37.2817 5.19939 36.4058 4.78579 35.4317C3.88056 33.2998 3.8844 30.5888 4.03925 29.3603C4.39975 26.5005 5.41898 23.4935 6.07978 21.6465C6.22742 21.2339 6.52426 20.7937 6.677 20.2033C6.85007 19.5343 6.88137 18.5374 7.09649 17.8026C7.4609 16.564 7.98933 15.3796 8.66775 14.2811C9.8573 12.3537 12.1646 10.2763 14.1921 8.75708C18.0634 5.85609 23.5592 4.94839 25.9476 4.68105C26.2413 4.64816 26.615 4.75112 27.0822 4.67626C27.5798 4.59651 28.1794 4.33713 28.7605 4.24509C30.2666 4.00656 32.5649 3.81556 34.5475 4.37766C35.6979 4.70382 36.7379 5.29304 37.5998 5.91544C42.0568 10.0141 44.8506 15.8932 44.8506 22.4255C44.8506 34.8108 34.8103 44.851 22.4251 44.851Z" fill="#9C9EBD"/>
<g clip-path="url(#clip0_1013_77)">
<path d="M25.0119 9.31916C25.8191 12.1325 26.3068 15.0554 26.0425 17.9821C25.9834 18.6425 25.8751 19.3097 25.705 19.9597C26.9337 22.1761 27.651 24.6586 28.0056 27.1621C28.3889 29.8387 28.311 32.5778 27.9592 35.2525C27.8531 36.0687 27.7187 36.8989 27.5451 37.7091C28.6114 36.2267 29.6776 34.7442 30.7481 33.2603C31.0988 32.7755 31.7835 33.3927 31.4412 33.8747C30.0271 35.8364 28.6172 37.7967 27.2017 39.7542C26.974 40.0723 26.5476 39.8708 26.4181 39.5905C25.3208 37.2188 24.2249 34.8512 23.129 32.4836C22.8769 31.9442 23.758 31.6641 24.0073 32.1951C24.8665 34.0556 25.7285 35.9105 26.5876 37.771C27.3631 34.6343 27.5086 31.2461 27.1892 28.0666C26.9508 25.6887 26.3411 23.3486 25.3004 21.2061C24.9977 21.9652 24.5968 22.6818 24.074 23.312C23.1838 24.3904 21.8608 25.1198 20.4455 25.0842C18.7562 25.0403 17.2498 23.9725 16.4225 22.5366C15.5087 20.9513 15.339 18.9251 15.8568 17.183C16.309 15.6684 17.4479 14.279 19.1403 14.2751C21.6141 14.2718 23.6384 16.8163 24.8927 18.6406C24.929 18.6941 24.9611 18.7491 24.9974 18.8026C25.5392 15.7521 24.9754 12.5406 24.1322 9.60348C23.9674 9.03069 24.8457 8.74214 25.0105 9.31494L25.0119 9.31916ZM21.0757 15.9084C20.3652 15.426 19.4673 15.0425 18.6018 15.2707C17.0117 15.6855 16.5108 17.7495 16.5018 19.1607C16.4867 21.0231 17.3091 22.9284 19.0258 23.7961C20.2039 24.3916 21.5344 24.2259 22.5904 23.4672C23.6917 22.675 24.3326 21.3931 24.7149 20.0932C24.5642 19.8339 24.4093 19.576 24.2418 19.3222C23.404 18.0395 22.3609 16.7728 21.0813 15.9112L21.0757 15.9084Z" fill="white"/>
</g>
<defs>
<clipPath id="clip0_1013_77">
<rect width="30.1227" height="12.4144" fill="white" transform="matrix(-0.312103 -0.950048 -0.950048 0.312103 34.2744 37.5148)"/>
</clipPath>
</defs>
</svg>
