<svg aria-hidden="true" style="position: absolute; width: 0; height: 0; overflow: hidden;" version="1.1" xmlns="http://www.w3.org/2000/svg" xmlns:xlink="http://www.w3.org/1999/xlink">
<defs>
<symbol id="icon-hamburger" viewBox="0 0 47 32">
<path d="M1.96-0.105c-1.205 0-2.182 0.977-2.182 2.182v0c0 1.205 0.977 2.182 2.182 2.182h42.966c1.205 0 2.182-0.977 2.182-2.182v0c0-1.205-0.977-2.182-2.182-2.182v0zM1.96 13.435c-1.205 0-2.182 0.977-2.182 2.182v0c0 1.205 0.977 2.182 2.182 2.182h42.966c1.205 0 2.182-0.977 2.182-2.182v0c0-1.205-0.977-2.182-2.182-2.182v0zM1.96 26.972c-1.205 0-2.182 0.977-2.182 2.182v0c0 1.205 0.977 2.182 2.182 2.182h42.966c1.205 0 2.182-0.977 2.182-2.182v0c0-1.205-0.977-2.182-2.182-2.182v0z"></path>
</symbol>
</defs>
</svg>
