<svg width="320" height="42" viewBox="0 0 320 42" fill="none" xmlns="http://www.w3.org/2000/svg">
<path d="M-648 27.8873C-648 27.8873 -557.273 15.4382 -498.6 14.8073C-440.073 14.178 -407.725 23.8584 -349.2 24.6173C-241.963 26.0077 -183.021 -3.99886 -76 1.72737C-4.90933 5.53112 16 40.9673 71.6 27.8873C81.3299 25.5983 102.766 16.9571 124 14.8073C157.238 11.4422 192.482 21.8423 208.8 25.2713C269.6 38.0476 334.683 1.10986 443.2 8.26735C512.833 12.8602 549.355 33.2705 619.2 34.4272C697.819 35.7293 739.974 0.280268 818 8.26735C845.824 11.1156 888 21.3473 888 21.3473" stroke="#D4E1E9" stroke-width="2"/>
<path d="M888 14.8074C888 14.8074 797.273 28.5183 738.6 27.8874C680.073 27.258 647.725 17.3186 589.2 18.0774C481.963 19.4679 423.021 2.54123 316 8.26746C244.909 12.0712 224.638 9.81972 168.4 21.3474C147.646 25.6015 137.103 31.5439 116 34.4274C83.3134 38.8935 47.5177 28.3824 31.2 31.8114C-29.6 44.5877 -94.6834 -5.43 -203.2 1.72748C-272.833 6.32029 -309.355 39.8106 -379.2 40.9673C-457.819 42.2694 -499.974 4.20436 -578 12.1914C-605.824 15.0397 -648 14.8074 -648 14.8074" stroke="#D4E1E9" stroke-width="2"/>
</svg>
