<svg width="27" height="20" viewBox="0 0 27 20" fill="none" xmlns="http://www.w3.org/2000/svg">
<path d="M12.3824 0L13.1348 1.28527C10.209 2.83177 8.23407 4.21108 7.21003 5.4232C6.54128 6.23824 6.2069 7.01149 6.2069 7.74295C6.2069 8.4744 6.73981 9.34169 7.80564 10.3448C8.89237 11.348 9.62382 12.2153 10 12.9467C10.2717 13.4692 10.4075 14.0752 10.4075 14.7649C10.4075 16.1651 9.90596 17.3668 8.90282 18.3699C7.89969 19.373 6.65622 19.8746 5.17241 19.8746C3.70951 19.8746 2.47649 19.3417 1.47335 18.2759C0.491118 17.1891 0 15.8098 0 14.1379C0 11.5465 0.794148 9.2163 2.38245 7.14734C4.49321 4.43051 7.82654 2.04807 12.3824 0ZM26.2069 0L26.9906 1.37931C24.0021 2.94671 22.0376 4.29467 21.0972 5.4232C20.4493 6.21735 20.1254 7.02194 20.1254 7.83699C20.1254 8.58934 20.7001 9.48798 21.8495 10.5329C23.4587 11.9749 24.2633 13.396 24.2633 14.7962C24.2633 16.1964 23.7513 17.419 22.7273 18.4639C21.7241 19.488 20.5329 20 19.1536 20C17.7325 20 16.489 19.4357 15.4232 18.3072C14.3574 17.1578 13.8245 15.7576 13.8245 14.1066C13.8245 11.5152 14.7022 9.11181 16.4577 6.89655C18.6729 4.05434 21.9227 1.75549 26.2069 0Z" fill="#EDF6FC"/>
</svg>
