<svg width="27" height="20" viewBox="0 0 27 20" fill="none" xmlns="http://www.w3.org/2000/svg">
<path d="M14.6176 20L13.8652 18.7147C16.791 17.1682 18.7659 15.7889 19.79 14.5768C20.4587 13.7618 20.7931 12.9885 20.7931 12.2571C20.7931 11.5256 20.2602 10.6583 19.1944 9.65517C18.1076 8.65204 17.3762 7.78474 17 7.05329C16.7283 6.53083 16.5925 5.92476 16.5925 5.23511C16.5925 3.8349 17.094 2.63323 18.0972 1.63009C19.1003 0.626959 20.3438 0.125391 21.8276 0.125391C23.2905 0.125391 24.5235 0.658306 25.5266 1.72414C26.5089 2.81087 27 4.19018 27 5.86207C27 8.4535 26.2059 10.7837 24.6176 12.8527C22.5068 15.5695 19.1735 17.9519 14.6176 20ZM0.793102 20L0.00940323 18.6207C2.99791 17.0533 4.96238 15.7053 5.90282 14.5768C6.55068 13.7827 6.87461 12.9781 6.87461 12.163C6.87461 11.4107 6.29989 10.512 5.15047 9.46708C3.54128 8.02508 2.73668 6.60397 2.73668 5.20376C2.73668 3.80355 3.24869 2.58098 4.27273 1.53605C5.27586 0.512016 6.46708 0 7.8464 0C9.2675 0 10.511 0.564262 11.5768 1.69279C12.6426 2.84221 13.1755 4.24242 13.1755 5.89342C13.1755 8.48485 12.2978 10.8882 10.5423 13.1034C8.32706 15.9457 5.07732 18.2445 0.793102 20Z" fill="#EDF6FC"/>
</svg>
